<mxfile host="app.diagrams.net" modified="2023-07-31T18:02:04.349Z" agent="Mozilla/5.0 (Windows NT 10.0; Win64; x64) AppleWebKit/537.36 (KHTML, like Gecko) Chrome/115.0.0.0 Safari/537.36 Edg/115.0.1901.188" etag="aX1ME5FiUu0z6OlAwB-T" version="21.6.6" type="github">
  <diagram name="Page-1" id="B6k_siD22SNBOHI-nZvz">
    <mxGraphModel dx="1379" dy="788" grid="1" gridSize="10" guides="1" tooltips="1" connect="1" arrows="1" fold="1" page="1" pageScale="1" pageWidth="827" pageHeight="1169" math="0" shadow="0">
      <root>
        <mxCell id="0" />
        <mxCell id="1" parent="0" />
        <mxCell id="ob9rdrXAudvJEvuzWZ0D-23" style="edgeStyle=orthogonalEdgeStyle;rounded=0;orthogonalLoop=1;jettySize=auto;html=1;exitX=0;exitY=0;exitDx=0;exitDy=0;entryX=0.738;entryY=1.02;entryDx=0;entryDy=0;entryPerimeter=0;endArrow=baseDash;endFill=0;" edge="1" parent="1" source="ob9rdrXAudvJEvuzWZ0D-1" target="ob9rdrXAudvJEvuzWZ0D-2">
          <mxGeometry relative="1" as="geometry" />
        </mxCell>
        <mxCell id="ob9rdrXAudvJEvuzWZ0D-1" value="Department" style="rounded=0;whiteSpace=wrap;html=1;" vertex="1" parent="1">
          <mxGeometry x="150" y="210" width="100" height="40" as="geometry" />
        </mxCell>
        <mxCell id="ob9rdrXAudvJEvuzWZ0D-2" value="Numbers" style="ellipse;whiteSpace=wrap;html=1;" vertex="1" parent="1">
          <mxGeometry x="60" y="140" width="80" height="50" as="geometry" />
        </mxCell>
        <mxCell id="ob9rdrXAudvJEvuzWZ0D-24" style="edgeStyle=orthogonalEdgeStyle;rounded=0;orthogonalLoop=1;jettySize=auto;html=1;exitX=1;exitY=0;exitDx=0;exitDy=0;entryX=0.25;entryY=1;entryDx=0;entryDy=0;endArrow=baseDash;endFill=0;" edge="1" parent="1" source="ob9rdrXAudvJEvuzWZ0D-3" target="ob9rdrXAudvJEvuzWZ0D-1">
          <mxGeometry relative="1" as="geometry" />
        </mxCell>
        <mxCell id="ob9rdrXAudvJEvuzWZ0D-3" value="Names" style="ellipse;whiteSpace=wrap;html=1;" vertex="1" parent="1">
          <mxGeometry x="40" y="270" width="80" height="50" as="geometry" />
        </mxCell>
        <mxCell id="ob9rdrXAudvJEvuzWZ0D-4" value="Project" style="rounded=0;whiteSpace=wrap;html=1;" vertex="1" parent="1">
          <mxGeometry x="320" y="400" width="100" height="40" as="geometry" />
        </mxCell>
        <mxCell id="ob9rdrXAudvJEvuzWZ0D-27" style="edgeStyle=orthogonalEdgeStyle;rounded=0;orthogonalLoop=1;jettySize=auto;html=1;exitX=0.5;exitY=0;exitDx=0;exitDy=0;entryX=0.25;entryY=1;entryDx=0;entryDy=0;endArrow=baseDash;endFill=0;" edge="1" parent="1" source="ob9rdrXAudvJEvuzWZ0D-5" target="ob9rdrXAudvJEvuzWZ0D-4">
          <mxGeometry relative="1" as="geometry" />
        </mxCell>
        <mxCell id="ob9rdrXAudvJEvuzWZ0D-5" value="Names" style="ellipse;whiteSpace=wrap;html=1;" vertex="1" parent="1">
          <mxGeometry x="250" y="490" width="80" height="50" as="geometry" />
        </mxCell>
        <mxCell id="ob9rdrXAudvJEvuzWZ0D-28" style="edgeStyle=orthogonalEdgeStyle;rounded=0;orthogonalLoop=1;jettySize=auto;html=1;exitX=0.5;exitY=0;exitDx=0;exitDy=0;entryX=0.5;entryY=1;entryDx=0;entryDy=0;endArrow=baseDash;endFill=0;" edge="1" parent="1" source="ob9rdrXAudvJEvuzWZ0D-6" target="ob9rdrXAudvJEvuzWZ0D-4">
          <mxGeometry relative="1" as="geometry" />
        </mxCell>
        <mxCell id="ob9rdrXAudvJEvuzWZ0D-6" value="Numbers" style="ellipse;whiteSpace=wrap;html=1;" vertex="1" parent="1">
          <mxGeometry x="360" y="520" width="80" height="50" as="geometry" />
        </mxCell>
        <mxCell id="ob9rdrXAudvJEvuzWZ0D-29" style="edgeStyle=orthogonalEdgeStyle;rounded=0;orthogonalLoop=1;jettySize=auto;html=1;exitX=0;exitY=0;exitDx=0;exitDy=0;entryX=0.92;entryY=1.075;entryDx=0;entryDy=0;entryPerimeter=0;endArrow=baseDash;endFill=0;" edge="1" parent="1" source="ob9rdrXAudvJEvuzWZ0D-7" target="ob9rdrXAudvJEvuzWZ0D-4">
          <mxGeometry relative="1" as="geometry" />
        </mxCell>
        <mxCell id="ob9rdrXAudvJEvuzWZ0D-7" value="Location" style="ellipse;whiteSpace=wrap;html=1;" vertex="1" parent="1">
          <mxGeometry x="460" y="470" width="80" height="50" as="geometry" />
        </mxCell>
        <mxCell id="ob9rdrXAudvJEvuzWZ0D-36" style="edgeStyle=orthogonalEdgeStyle;rounded=0;orthogonalLoop=1;jettySize=auto;html=1;exitX=1;exitY=0.5;exitDx=0;exitDy=0;entryX=0;entryY=0.5;entryDx=0;entryDy=0;endArrow=baseDash;endFill=0;" edge="1" parent="1" source="ob9rdrXAudvJEvuzWZ0D-8" target="ob9rdrXAudvJEvuzWZ0D-10">
          <mxGeometry relative="1" as="geometry" />
        </mxCell>
        <mxCell id="ob9rdrXAudvJEvuzWZ0D-37" style="edgeStyle=orthogonalEdgeStyle;rounded=0;orthogonalLoop=1;jettySize=auto;html=1;exitX=1;exitY=0.75;exitDx=0;exitDy=0;endArrow=baseDash;endFill=0;" edge="1" parent="1" source="ob9rdrXAudvJEvuzWZ0D-8" target="ob9rdrXAudvJEvuzWZ0D-11">
          <mxGeometry relative="1" as="geometry" />
        </mxCell>
        <mxCell id="ob9rdrXAudvJEvuzWZ0D-38" style="edgeStyle=orthogonalEdgeStyle;rounded=0;orthogonalLoop=1;jettySize=auto;html=1;exitX=0.5;exitY=1;exitDx=0;exitDy=0;entryX=0.338;entryY=0.04;entryDx=0;entryDy=0;entryPerimeter=0;endArrow=baseDash;endFill=0;" edge="1" parent="1" source="ob9rdrXAudvJEvuzWZ0D-8" target="ob9rdrXAudvJEvuzWZ0D-12">
          <mxGeometry relative="1" as="geometry" />
        </mxCell>
        <mxCell id="ob9rdrXAudvJEvuzWZ0D-8" value="Employee" style="rounded=0;whiteSpace=wrap;html=1;" vertex="1" parent="1">
          <mxGeometry x="540" y="100" width="100" height="40" as="geometry" />
        </mxCell>
        <mxCell id="ob9rdrXAudvJEvuzWZ0D-35" style="edgeStyle=orthogonalEdgeStyle;rounded=0;orthogonalLoop=1;jettySize=auto;html=1;exitX=0.5;exitY=1;exitDx=0;exitDy=0;entryX=0.65;entryY=-0.025;entryDx=0;entryDy=0;entryPerimeter=0;endArrow=baseDash;endFill=0;" edge="1" parent="1" source="ob9rdrXAudvJEvuzWZ0D-9" target="ob9rdrXAudvJEvuzWZ0D-8">
          <mxGeometry relative="1" as="geometry" />
        </mxCell>
        <mxCell id="ob9rdrXAudvJEvuzWZ0D-9" value="Social security number" style="ellipse;whiteSpace=wrap;html=1;" vertex="1" parent="1">
          <mxGeometry x="590" y="10" width="80" height="50" as="geometry" />
        </mxCell>
        <mxCell id="ob9rdrXAudvJEvuzWZ0D-10" value="Address" style="ellipse;whiteSpace=wrap;html=1;" vertex="1" parent="1">
          <mxGeometry x="690" y="60" width="80" height="50" as="geometry" />
        </mxCell>
        <mxCell id="ob9rdrXAudvJEvuzWZ0D-11" value="Salary" style="ellipse;whiteSpace=wrap;html=1;" vertex="1" parent="1">
          <mxGeometry x="680" y="150" width="80" height="50" as="geometry" />
        </mxCell>
        <mxCell id="ob9rdrXAudvJEvuzWZ0D-12" value="Sex" style="ellipse;whiteSpace=wrap;html=1;" vertex="1" parent="1">
          <mxGeometry x="590" y="200" width="80" height="50" as="geometry" />
        </mxCell>
        <mxCell id="ob9rdrXAudvJEvuzWZ0D-34" style="edgeStyle=orthogonalEdgeStyle;rounded=0;orthogonalLoop=1;jettySize=auto;html=1;exitX=1;exitY=1;exitDx=0;exitDy=0;entryX=0.25;entryY=0;entryDx=0;entryDy=0;endArrow=baseDash;endFill=0;" edge="1" parent="1" source="ob9rdrXAudvJEvuzWZ0D-13" target="ob9rdrXAudvJEvuzWZ0D-8">
          <mxGeometry relative="1" as="geometry" />
        </mxCell>
        <mxCell id="ob9rdrXAudvJEvuzWZ0D-13" value="Birthdate" style="ellipse;whiteSpace=wrap;html=1;" vertex="1" parent="1">
          <mxGeometry x="460" y="20" width="80" height="50" as="geometry" />
        </mxCell>
        <mxCell id="ob9rdrXAudvJEvuzWZ0D-44" style="edgeStyle=orthogonalEdgeStyle;rounded=0;orthogonalLoop=1;jettySize=auto;html=1;exitX=1;exitY=1;exitDx=0;exitDy=0;endArrow=baseDash;endFill=0;" edge="1" parent="1" source="ob9rdrXAudvJEvuzWZ0D-14" target="ob9rdrXAudvJEvuzWZ0D-16">
          <mxGeometry relative="1" as="geometry" />
        </mxCell>
        <mxCell id="ob9rdrXAudvJEvuzWZ0D-45" style="edgeStyle=orthogonalEdgeStyle;rounded=0;orthogonalLoop=1;jettySize=auto;html=1;exitX=1;exitY=0.5;exitDx=0;exitDy=0;entryX=0;entryY=0.5;entryDx=0;entryDy=0;endArrow=baseDash;endFill=0;" edge="1" parent="1" source="ob9rdrXAudvJEvuzWZ0D-14" target="ob9rdrXAudvJEvuzWZ0D-15">
          <mxGeometry relative="1" as="geometry" />
        </mxCell>
        <mxCell id="ob9rdrXAudvJEvuzWZ0D-14" value="Dependents" style="rounded=0;whiteSpace=wrap;html=1;" vertex="1" parent="1">
          <mxGeometry x="540" y="310" width="100" height="40" as="geometry" />
        </mxCell>
        <mxCell id="ob9rdrXAudvJEvuzWZ0D-15" value="Sex" style="ellipse;whiteSpace=wrap;html=1;" vertex="1" parent="1">
          <mxGeometry x="700" y="305" width="80" height="50" as="geometry" />
        </mxCell>
        <mxCell id="ob9rdrXAudvJEvuzWZ0D-16" value="Names" style="ellipse;whiteSpace=wrap;html=1;" vertex="1" parent="1">
          <mxGeometry x="690" y="390" width="80" height="50" as="geometry" />
        </mxCell>
        <mxCell id="ob9rdrXAudvJEvuzWZ0D-42" style="edgeStyle=orthogonalEdgeStyle;rounded=0;orthogonalLoop=1;jettySize=auto;html=1;exitX=0.5;exitY=0;exitDx=0;exitDy=0;entryX=0.5;entryY=1;entryDx=0;entryDy=0;endArrow=baseDash;endFill=0;" edge="1" parent="1" source="ob9rdrXAudvJEvuzWZ0D-17" target="ob9rdrXAudvJEvuzWZ0D-14">
          <mxGeometry relative="1" as="geometry" />
        </mxCell>
        <mxCell id="ob9rdrXAudvJEvuzWZ0D-17" value="Birthdate" style="ellipse;whiteSpace=wrap;html=1;" vertex="1" parent="1">
          <mxGeometry x="570" y="390" width="80" height="50" as="geometry" />
        </mxCell>
        <mxCell id="ob9rdrXAudvJEvuzWZ0D-41" style="edgeStyle=orthogonalEdgeStyle;rounded=0;orthogonalLoop=1;jettySize=auto;html=1;exitX=0.5;exitY=0;exitDx=0;exitDy=0;entryX=0.25;entryY=1;entryDx=0;entryDy=0;endArrow=baseDash;endFill=0;" edge="1" parent="1" source="ob9rdrXAudvJEvuzWZ0D-18" target="ob9rdrXAudvJEvuzWZ0D-14">
          <mxGeometry relative="1" as="geometry" />
        </mxCell>
        <mxCell id="ob9rdrXAudvJEvuzWZ0D-18" value="Relationship" style="ellipse;whiteSpace=wrap;html=1;" vertex="1" parent="1">
          <mxGeometry x="470" y="370" width="80" height="50" as="geometry" />
        </mxCell>
        <mxCell id="ob9rdrXAudvJEvuzWZ0D-32" style="edgeStyle=orthogonalEdgeStyle;rounded=0;orthogonalLoop=1;jettySize=auto;html=1;exitX=1;exitY=0.5;exitDx=0;exitDy=0;endArrow=baseDash;endFill=0;" edge="1" parent="1" source="ob9rdrXAudvJEvuzWZ0D-19" target="ob9rdrXAudvJEvuzWZ0D-8">
          <mxGeometry relative="1" as="geometry" />
        </mxCell>
        <mxCell id="ob9rdrXAudvJEvuzWZ0D-33" style="edgeStyle=orthogonalEdgeStyle;rounded=0;orthogonalLoop=1;jettySize=auto;html=1;exitX=0;exitY=0.5;exitDx=0;exitDy=0;endArrow=baseDash;endFill=0;" edge="1" parent="1" source="ob9rdrXAudvJEvuzWZ0D-19">
          <mxGeometry relative="1" as="geometry">
            <mxPoint x="220" y="200" as="targetPoint" />
          </mxGeometry>
        </mxCell>
        <mxCell id="ob9rdrXAudvJEvuzWZ0D-19" value="Manages" style="rhombus;whiteSpace=wrap;html=1;" vertex="1" parent="1">
          <mxGeometry x="320" y="100" width="80" height="80" as="geometry" />
        </mxCell>
        <mxCell id="ob9rdrXAudvJEvuzWZ0D-25" style="edgeStyle=orthogonalEdgeStyle;rounded=0;orthogonalLoop=1;jettySize=auto;html=1;exitX=0.5;exitY=0;exitDx=0;exitDy=0;entryX=0.5;entryY=1;entryDx=0;entryDy=0;endArrow=baseDash;endFill=0;" edge="1" parent="1" source="ob9rdrXAudvJEvuzWZ0D-20" target="ob9rdrXAudvJEvuzWZ0D-1">
          <mxGeometry relative="1" as="geometry" />
        </mxCell>
        <mxCell id="ob9rdrXAudvJEvuzWZ0D-26" style="edgeStyle=orthogonalEdgeStyle;rounded=0;orthogonalLoop=1;jettySize=auto;html=1;exitX=1;exitY=0.5;exitDx=0;exitDy=0;entryX=0.5;entryY=0;entryDx=0;entryDy=0;endArrow=baseDash;endFill=0;" edge="1" parent="1" source="ob9rdrXAudvJEvuzWZ0D-20" target="ob9rdrXAudvJEvuzWZ0D-4">
          <mxGeometry relative="1" as="geometry" />
        </mxCell>
        <mxCell id="ob9rdrXAudvJEvuzWZ0D-20" value="Control" style="rhombus;whiteSpace=wrap;html=1;" vertex="1" parent="1">
          <mxGeometry x="180" y="310" width="80" height="80" as="geometry" />
        </mxCell>
        <mxCell id="ob9rdrXAudvJEvuzWZ0D-39" value="" style="edgeStyle=orthogonalEdgeStyle;rounded=0;orthogonalLoop=1;jettySize=auto;html=1;endArrow=baseDash;endFill=0;" edge="1" parent="1" source="ob9rdrXAudvJEvuzWZ0D-21" target="ob9rdrXAudvJEvuzWZ0D-8">
          <mxGeometry relative="1" as="geometry" />
        </mxCell>
        <mxCell id="ob9rdrXAudvJEvuzWZ0D-40" style="edgeStyle=orthogonalEdgeStyle;rounded=0;orthogonalLoop=1;jettySize=auto;html=1;exitX=0.5;exitY=1;exitDx=0;exitDy=0;entryX=0.5;entryY=0;entryDx=0;entryDy=0;endArrow=baseDash;endFill=0;" edge="1" parent="1" source="ob9rdrXAudvJEvuzWZ0D-21" target="ob9rdrXAudvJEvuzWZ0D-14">
          <mxGeometry relative="1" as="geometry" />
        </mxCell>
        <mxCell id="ob9rdrXAudvJEvuzWZ0D-21" value="Have" style="rhombus;whiteSpace=wrap;html=1;" vertex="1" parent="1">
          <mxGeometry x="500" y="195" width="70" height="70" as="geometry" />
        </mxCell>
        <mxCell id="ob9rdrXAudvJEvuzWZ0D-30" style="edgeStyle=orthogonalEdgeStyle;rounded=0;orthogonalLoop=1;jettySize=auto;html=1;exitX=1;exitY=1;exitDx=0;exitDy=0;entryX=0.75;entryY=0;entryDx=0;entryDy=0;endArrow=baseDash;endFill=0;" edge="1" parent="1" source="ob9rdrXAudvJEvuzWZ0D-22" target="ob9rdrXAudvJEvuzWZ0D-4">
          <mxGeometry relative="1" as="geometry" />
        </mxCell>
        <mxCell id="ob9rdrXAudvJEvuzWZ0D-31" style="edgeStyle=orthogonalEdgeStyle;rounded=0;orthogonalLoop=1;jettySize=auto;html=1;exitX=1;exitY=0;exitDx=0;exitDy=0;entryX=0;entryY=0.75;entryDx=0;entryDy=0;endArrow=baseDash;endFill=0;" edge="1" parent="1" source="ob9rdrXAudvJEvuzWZ0D-22" target="ob9rdrXAudvJEvuzWZ0D-8">
          <mxGeometry relative="1" as="geometry" />
        </mxCell>
        <mxCell id="ob9rdrXAudvJEvuzWZ0D-22" value="Work" style="rhombus;whiteSpace=wrap;html=1;" vertex="1" parent="1">
          <mxGeometry x="334" y="240" width="80" height="80" as="geometry" />
        </mxCell>
        <mxCell id="ob9rdrXAudvJEvuzWZ0D-46" value="1" style="text;html=1;strokeColor=none;fillColor=none;align=center;verticalAlign=middle;whiteSpace=wrap;rounded=0;" vertex="1" parent="1">
          <mxGeometry x="270" y="110" width="60" height="30" as="geometry" />
        </mxCell>
        <mxCell id="ob9rdrXAudvJEvuzWZ0D-47" value="1" style="text;html=1;strokeColor=none;fillColor=none;align=center;verticalAlign=middle;whiteSpace=wrap;rounded=0;" vertex="1" parent="1">
          <mxGeometry x="390" y="110" width="60" height="30" as="geometry" />
        </mxCell>
        <mxCell id="ob9rdrXAudvJEvuzWZ0D-48" value="M" style="text;html=1;strokeColor=none;fillColor=none;align=center;verticalAlign=middle;whiteSpace=wrap;rounded=0;" vertex="1" parent="1">
          <mxGeometry x="240" y="320" width="60" height="30" as="geometry" />
        </mxCell>
        <mxCell id="ob9rdrXAudvJEvuzWZ0D-49" value="1" style="text;html=1;strokeColor=none;fillColor=none;align=center;verticalAlign=middle;whiteSpace=wrap;rounded=0;" vertex="1" parent="1">
          <mxGeometry x="200" y="280" width="60" height="30" as="geometry" />
        </mxCell>
        <mxCell id="ob9rdrXAudvJEvuzWZ0D-50" value="M" style="text;html=1;strokeColor=none;fillColor=none;align=center;verticalAlign=middle;whiteSpace=wrap;rounded=0;" vertex="1" parent="1">
          <mxGeometry x="384" y="235" width="60" height="30" as="geometry" />
        </mxCell>
        <mxCell id="ob9rdrXAudvJEvuzWZ0D-51" value="M" style="text;html=1;strokeColor=none;fillColor=none;align=center;verticalAlign=middle;whiteSpace=wrap;rounded=0;" vertex="1" parent="1">
          <mxGeometry x="380" y="300" width="60" height="30" as="geometry" />
        </mxCell>
        <mxCell id="ob9rdrXAudvJEvuzWZ0D-52" value="M" style="text;html=1;strokeColor=none;fillColor=none;align=center;verticalAlign=middle;whiteSpace=wrap;rounded=0;" vertex="1" parent="1">
          <mxGeometry x="490" y="260" width="60" height="30" as="geometry" />
        </mxCell>
        <mxCell id="ob9rdrXAudvJEvuzWZ0D-53" value="1" style="text;html=1;strokeColor=none;fillColor=none;align=center;verticalAlign=middle;whiteSpace=wrap;rounded=0;" vertex="1" parent="1">
          <mxGeometry x="490" y="170" width="60" height="30" as="geometry" />
        </mxCell>
      </root>
    </mxGraphModel>
  </diagram>
</mxfile>
